<svg width="907" height="635" viewBox="0 0 907 635" fill="none" xmlns="http://www.w3.org/2000/svg">
<circle cx="55.37" cy="55.3706" r="55.3706" fill="#F8F4EB"/>
<circle cx="55.3702" cy="188.041" r="55.3706" fill="#F8F4EB"/>
<circle cx="55.3702" cy="320.711" r="55.3706" fill="#EBC5D0"/>
<circle cx="55.3702" cy="453.381" r="55.3706" fill="#F8F4EB"/>
<circle cx="188.04" cy="55.3706" r="55.3706" fill="#F8F4EB"/>
<circle cx="188.04" cy="188.041" r="55.3706" fill="#EBC5D0"/>
<circle cx="188.04" cy="320.711" r="55.3706" fill="#F8F4EB"/>
<circle cx="188.04" cy="453.381" r="55.3706" fill="#F8F4EB"/>
<circle cx="320.71" cy="55.3706" r="55.3706" fill="#F8F4EB"/>
<circle cx="320.71" cy="188.041" r="55.3706" fill="#F8F4EB"/>
<circle cx="320.71" cy="320.711" r="55.3706" fill="#F8F4EB"/>
<circle cx="320.71" cy="453.381" r="55.3706" fill="#EBC5D0"/>
<circle cx="453.38" cy="55.3706" r="55.3706" fill="#F8F4EB"/>
<circle cx="453.38" cy="188.041" r="55.3706" fill="#F8F4EB"/>
<circle cx="453.38" cy="320.711" r="55.3706" fill="#F8F4EB"/>
<circle cx="453.38" cy="453.381" r="55.3706" fill="#F8F4EB"/>
<circle cx="586.05" cy="55.3706" r="55.3706" fill="#F8F4EB"/>
<circle cx="586.05" cy="188.041" r="55.3706" fill="#EBC5D0"/>
<circle cx="586.05" cy="320.711" r="55.3706" fill="#F8F4EB"/>
<circle cx="586.05" cy="453.381" r="55.3706" fill="#F8F4EB"/>
<circle cx="718.72" cy="55.3706" r="55.3706" fill="#EBC5D0"/>
<circle cx="718.72" cy="188.041" r="55.3706" fill="#F8F4EB"/>
<circle cx="718.72" cy="320.711" r="55.3706" fill="#F8F4EB"/>
<circle cx="718.72" cy="453.381" r="55.3706" fill="#F8F4EB"/>
<circle cx="851.391" cy="55.3706" r="55.3706" fill="#F8F4EB"/>
<circle cx="851.391" cy="188.041" r="55.3706" fill="#F8F4EB"/>
<circle cx="851.391" cy="320.711" r="55.3706" fill="#EBC5D0"/>
<circle cx="851.391" cy="453.381" r="55.3706" fill="#EBC5D0"/>
<circle cx="55.3705" cy="579.472" r="55.3706" fill="#F8F4EB"/>
<circle cx="188.04" cy="579.472" r="55.3706" fill="#EBC5D0"/>
<circle cx="320.711" cy="579.472" r="54.2741" stroke="#4B2324" stroke-width="2.19289"/>
<circle cx="453.381" cy="579.472" r="54.2741" stroke="#4B2324" stroke-width="2.19289"/>
<circle cx="586.051" cy="579.472" r="54.2741" stroke="#4B2324" stroke-width="2.19289"/>
<circle cx="718.721" cy="579.472" r="54.2741" stroke="#4B2324" stroke-width="2.19289"/>
<circle cx="851.391" cy="579.472" r="54.2741" fill="#D9D9D9" fill-opacity="0.06" stroke="#4B2324" stroke-width="2.19289"/>
<path d="M58.4416 48.5271V67.665H55.5447V51.4239H55.4326L50.8537 54.4142V51.6482L55.6288 48.5271H58.4416Z" fill="#4B2324"/>
<path d="M181.658 65.472V63.3788L188.134 56.6693C188.826 55.9404 189.396 55.3019 189.844 54.7537C190.299 54.1992 190.639 53.6728 190.863 53.1744C191.087 52.676 191.199 52.1465 191.199 51.5858C191.199 50.9504 191.05 50.4021 190.751 49.9411C190.452 49.4739 190.044 49.1157 189.527 48.8665C189.009 48.6111 188.427 48.4834 187.779 48.4834C187.094 48.4834 186.496 48.6235 185.985 48.9039C185.474 49.1842 185.082 49.5798 184.807 50.0906C184.533 50.6015 184.396 51.1995 184.396 51.8848H181.64C181.64 50.7199 181.907 49.7013 182.443 48.8291C182.979 47.9569 183.714 47.281 184.649 46.8013C185.583 46.3154 186.645 46.0724 187.835 46.0724C189.038 46.0724 190.097 46.3123 191.012 46.792C191.934 47.2654 192.654 47.9133 193.171 48.7357C193.688 49.5518 193.947 50.4738 193.947 51.5017C193.947 52.2119 193.813 52.9065 193.545 53.5856C193.283 54.2646 192.825 55.0215 192.171 55.8563C191.517 56.6849 190.607 57.691 189.442 58.8747L185.639 62.8555V62.9957H194.255V65.472H181.658Z" fill="#4B2324"/>
<path d="M320.991 65.7337C319.708 65.7337 318.561 65.5125 317.552 65.0702C316.549 64.6279 315.755 64.0143 315.169 63.2293C314.59 62.4381 314.278 61.5223 314.235 60.482H317.169C317.206 61.0489 317.396 61.541 317.739 61.9584C318.088 62.3696 318.543 62.6873 319.103 62.9116C319.664 63.1359 320.287 63.248 320.972 63.248C321.726 63.248 322.393 63.1172 322.972 62.8555C323.558 62.5939 324.016 62.2294 324.346 61.7622C324.676 61.2887 324.841 60.7436 324.841 60.1269C324.841 59.4852 324.676 58.9214 324.346 58.4355C324.022 57.9433 323.545 57.5571 322.916 57.2767C322.293 56.9964 321.539 56.8562 320.655 56.8562H319.038V54.5013H320.655C321.365 54.5013 321.988 54.3736 322.524 54.1182C323.066 53.8628 323.489 53.5077 323.794 53.0529C324.1 52.5919 324.252 52.053 324.252 51.4363C324.252 50.8444 324.118 50.3305 323.85 49.8944C323.589 49.4521 323.215 49.1063 322.729 48.8571C322.249 48.6079 321.683 48.4834 321.028 48.4834C320.405 48.4834 319.823 48.5986 319.281 48.8291C318.745 49.0534 318.309 49.3773 317.973 49.801C317.636 50.2184 317.456 50.7199 317.431 51.3055H314.637C314.668 50.2713 314.973 49.3618 315.552 48.5768C316.138 47.7918 316.91 47.1782 317.87 46.7359C318.829 46.2936 319.895 46.0724 321.066 46.0724C322.293 46.0724 323.352 46.3123 324.243 46.792C325.14 47.2654 325.832 47.8977 326.317 48.6889C326.81 49.4801 327.053 50.3461 327.046 51.2868C327.053 52.3583 326.754 53.2678 326.149 54.0154C325.551 54.763 324.754 55.2645 323.757 55.5199V55.6694C325.028 55.8626 326.012 56.3672 326.71 57.1833C327.414 57.9994 327.763 59.0117 327.757 60.2203C327.763 61.2732 327.47 62.217 326.878 63.0518C326.293 63.8866 325.492 64.5438 324.477 65.0235C323.461 65.497 322.299 65.7337 320.991 65.7337Z" fill="#4B2324"/>
<path d="M446.596 61.7342V59.398L454.866 46.3341H456.707V49.7729H455.539L449.624 59.1363V59.2858H460.959V61.7342H446.596ZM455.67 65.472V61.024L455.689 59.9587V46.3341H458.427V65.472H455.67Z" fill="#4B2324"/>
<path d="M584.888 65.7337C583.717 65.7337 582.664 65.5094 581.73 65.0609C580.802 64.6061 580.06 63.9831 579.506 63.1919C578.951 62.4007 578.655 61.4974 578.618 60.482H581.422C581.49 61.3043 581.854 61.9802 582.515 62.5098C583.175 63.0393 583.966 63.3041 584.888 63.3041C585.624 63.3041 586.275 63.1359 586.841 62.7995C587.415 62.4568 587.863 61.9865 588.187 61.3884C588.517 60.7903 588.682 60.1082 588.682 59.3419C588.682 58.5632 588.514 57.8686 588.178 57.258C587.841 56.6475 587.377 56.1678 586.785 55.819C586.2 55.4701 585.527 55.2925 584.767 55.2863C584.188 55.2863 583.605 55.386 583.019 55.5853C582.434 55.7847 581.96 56.0463 581.599 56.3703L578.955 55.9778L580.029 46.3341H590.551V48.8104H582.431L581.823 54.1649H581.935C582.309 53.8036 582.805 53.5015 583.421 53.2585C584.044 53.0155 584.711 52.8941 585.421 52.8941C586.586 52.8941 587.623 53.1713 588.533 53.7257C589.449 54.2802 590.168 55.0371 590.691 55.9965C591.221 56.9497 591.483 58.0461 591.476 59.2858C591.483 60.5256 591.202 61.6314 590.635 62.6032C590.075 63.5751 589.296 64.3413 588.299 64.902C587.309 65.4565 586.172 65.7337 584.888 65.7337Z" fill="#4B2324"/>
<path d="M719.019 65.7337C718.166 65.7212 717.325 65.5655 716.496 65.2665C715.674 64.9674 714.926 64.469 714.254 63.7713C713.581 63.0736 713.042 62.136 712.637 60.9585C712.238 59.7811 712.039 58.3109 712.039 56.5478C712.039 54.8783 712.204 53.3956 712.534 52.0998C712.871 50.804 713.353 49.7106 713.983 48.8198C714.612 47.9227 715.372 47.2405 716.263 46.7733C717.154 46.306 718.154 46.0724 719.262 46.0724C720.402 46.0724 721.415 46.2967 722.299 46.7452C723.184 47.1938 723.901 47.8136 724.449 48.6048C725.003 49.396 725.355 50.2962 725.505 51.3055H722.655C722.461 50.508 722.078 49.857 721.505 49.3524C720.932 48.8478 720.184 48.5955 719.262 48.5955C717.861 48.5955 716.767 49.206 715.982 50.4271C715.204 51.6481 714.811 53.3457 714.805 55.5199H714.945C715.275 54.9779 715.68 54.5169 716.16 54.1369C716.646 53.7507 717.188 53.4547 717.786 53.2492C718.39 53.0373 719.026 52.9314 719.692 52.9314C720.801 52.9314 721.804 53.2024 722.701 53.7444C723.605 54.2802 724.324 55.0215 724.86 55.9685C725.396 56.9154 725.664 57.9994 725.664 59.2204C725.664 60.4415 725.386 61.5473 724.832 62.5378C724.284 63.5283 723.511 64.3133 722.514 64.8927C721.518 65.4658 720.353 65.7462 719.019 65.7337ZM719.01 63.3041C719.745 63.3041 720.402 63.1234 720.982 62.7621C721.561 62.4007 722.019 61.9148 722.356 61.3043C722.692 60.6938 722.86 60.0116 722.86 59.2578C722.86 58.5227 722.695 57.853 722.365 57.2487C722.041 56.6444 721.592 56.1647 721.019 55.8096C720.452 55.4545 719.804 55.277 719.076 55.277C718.521 55.277 718.007 55.3829 717.534 55.5947C717.066 55.8065 716.655 56.0993 716.3 56.4731C715.945 56.8469 715.665 57.2767 715.459 57.7627C715.26 58.2424 715.16 58.7501 715.16 59.2858C715.16 60.0023 715.325 60.6657 715.655 61.2763C715.992 61.8868 716.45 62.3789 717.029 62.7527C717.615 63.1203 718.275 63.3041 719.01 63.3041Z" fill="#4B2324"/>
<path d="M846.749 65.472L855.104 48.9506V48.8104H845.441V46.3341H858.094V48.8945L849.768 65.472H846.749Z" fill="#4B2324"/>
<path d="M55.4549 201.693C54.1155 201.693 52.9318 201.463 51.9039 201.002C50.8822 200.541 50.0817 199.905 49.5023 199.095C48.923 198.285 48.6364 197.363 48.6426 196.329C48.6364 195.519 48.8015 194.775 49.1379 194.096C49.4805 193.411 49.9446 192.841 50.5302 192.386C51.1159 191.925 51.77 191.632 52.4926 191.507V191.395C51.5395 191.165 50.7763 190.654 50.2032 189.863C49.63 189.072 49.3466 188.162 49.3528 187.134C49.3466 186.156 49.6051 185.284 50.1284 184.518C50.658 183.745 51.3837 183.138 52.3057 182.695C53.2278 182.253 54.2775 182.032 55.4549 182.032C56.6199 182.032 57.6603 182.256 58.576 182.705C59.4981 183.147 60.2238 183.754 60.7534 184.527C61.2829 185.293 61.5508 186.162 61.557 187.134C61.5508 188.162 61.258 189.072 60.6786 189.863C60.0992 190.654 59.3454 191.165 58.4172 191.395V191.507C59.1336 191.632 59.7784 191.925 60.3515 192.386C60.9309 192.841 61.3919 193.411 61.7346 194.096C62.0834 194.775 62.261 195.519 62.2672 196.329C62.261 197.363 61.9682 198.285 61.3888 199.095C60.8094 199.905 60.0058 200.541 58.9779 201.002C57.9562 201.463 56.7819 201.693 55.4549 201.693ZM55.4549 199.329C56.2461 199.329 56.9314 199.198 57.5108 198.936C58.0901 198.669 58.5387 198.298 58.8564 197.824C59.1741 197.345 59.3361 196.784 59.3423 196.142C59.3361 195.476 59.1617 194.887 58.819 194.376C58.4826 193.865 58.0247 193.464 57.4453 193.171C56.866 192.878 56.2025 192.732 55.4549 192.732C54.7011 192.732 54.0314 192.878 53.4458 193.171C52.8602 193.464 52.3992 193.865 52.0628 194.376C51.7264 194.887 51.5613 195.476 51.5675 196.142C51.5613 196.784 51.7139 197.345 52.0254 197.824C52.3431 198.298 52.7948 198.669 53.3804 198.936C53.966 199.198 54.6575 199.329 55.4549 199.329ZM55.4549 190.423C56.0904 190.423 56.6542 190.296 57.1463 190.04C57.6385 189.785 58.0247 189.43 58.3051 188.975C58.5916 188.52 58.738 187.988 58.7443 187.377C58.738 186.779 58.5947 186.256 58.3144 185.807C58.0403 185.359 57.6572 185.013 57.165 184.77C56.6728 184.521 56.1028 184.396 55.4549 184.396C54.7946 184.396 54.2152 184.521 53.7168 184.77C53.2246 185.013 52.8415 185.359 52.5674 185.807C52.2933 186.256 52.1593 186.779 52.1656 187.377C52.1593 187.988 52.2964 188.52 52.5767 188.975C52.8571 189.43 53.2433 189.785 53.7355 190.04C54.2339 190.296 54.807 190.423 55.4549 190.423Z" fill="#4B2324"/>
<path d="M188.022 182.032C188.876 182.038 189.717 182.194 190.545 182.499C191.374 182.804 192.121 183.303 192.788 183.994C193.461 184.686 193.996 185.62 194.395 186.798C194.8 187.969 195.006 189.427 195.012 191.171C195.012 192.847 194.844 194.339 194.507 195.647C194.171 196.949 193.688 198.049 193.059 198.946C192.436 199.843 191.679 200.525 190.788 200.992C189.897 201.459 188.894 201.693 187.779 201.693C186.639 201.693 185.627 201.469 184.742 201.02C183.857 200.572 183.138 199.952 182.583 199.161C182.029 198.363 181.683 197.447 181.546 196.413H184.396C184.583 197.236 184.963 197.902 185.536 198.413C186.116 198.918 186.863 199.17 187.779 199.17C189.181 199.17 190.274 198.56 191.059 197.338C191.844 196.111 192.24 194.398 192.246 192.199H192.096C191.772 192.735 191.367 193.196 190.882 193.582C190.402 193.968 189.863 194.267 189.265 194.479C188.667 194.691 188.028 194.797 187.349 194.797C186.247 194.797 185.244 194.526 184.34 193.984C183.437 193.442 182.717 192.697 182.182 191.75C181.646 190.803 181.378 189.723 181.378 188.508C181.378 187.299 181.652 186.203 182.2 185.218C182.755 184.234 183.527 183.455 184.518 182.882C185.515 182.303 186.683 182.019 188.022 182.032ZM188.031 184.461C187.303 184.461 186.645 184.642 186.06 185.003C185.48 185.359 185.022 185.841 184.686 186.452C184.35 187.056 184.181 187.729 184.181 188.47C184.181 189.212 184.343 189.885 184.667 190.489C184.997 191.087 185.446 191.563 186.013 191.919C186.586 192.267 187.24 192.442 187.975 192.442C188.524 192.442 189.034 192.336 189.508 192.124C189.981 191.912 190.396 191.62 190.751 191.246C191.106 190.866 191.383 190.436 191.582 189.956C191.782 189.476 191.881 188.972 191.881 188.442C191.881 187.738 191.713 187.084 191.377 186.48C191.047 185.876 190.592 185.39 190.012 185.022C189.433 184.648 188.773 184.461 188.031 184.461Z" fill="#4B2324"/>
<path d="M313.914 179.004V198.142H311.017V181.901H310.905L306.326 184.891V182.125L311.101 179.004H313.914ZM325.754 198.46C324.278 198.454 323.016 198.064 321.969 197.292C320.923 196.519 320.122 195.395 319.568 193.918C319.013 192.442 318.736 190.663 318.736 188.583C318.736 186.508 319.013 184.736 319.568 183.265C320.128 181.795 320.932 180.674 321.979 179.901C323.032 179.129 324.29 178.743 325.754 178.743C327.218 178.743 328.473 179.132 329.52 179.911C330.567 180.683 331.367 181.804 331.922 183.275C332.482 184.739 332.763 186.508 332.763 188.583C332.763 190.669 332.485 192.451 331.931 193.928C331.376 195.398 330.576 196.522 329.529 197.301C328.483 198.074 327.224 198.46 325.754 198.46ZM325.754 195.965C327.05 195.965 328.062 195.333 328.791 194.068C329.526 192.803 329.894 190.975 329.894 188.583C329.894 186.994 329.726 185.651 329.389 184.555C329.059 183.452 328.582 182.617 327.959 182.051C327.343 181.477 326.607 181.191 325.754 181.191C324.464 181.191 323.452 181.826 322.717 183.097C321.982 184.368 321.611 186.196 321.605 188.583C321.605 190.177 321.77 191.526 322.1 192.629C322.437 193.725 322.913 194.557 323.53 195.124C324.147 195.684 324.888 195.965 325.754 195.965Z" fill="#4B2324"/>
<path d="M448.777 182.293V201.431H445.88V185.19H445.768L441.189 188.181V185.415L445.964 182.293H448.777ZM461.214 182.293V201.431H458.318V185.19H458.205L453.626 188.181V185.415L458.402 182.293H461.214Z" fill="#4B2324"/>
<path d="M579.254 179.004V198.142H576.357V181.901H576.245L571.666 184.891V182.125L576.441 179.004H579.254ZM584.431 198.142V196.049L590.907 189.339C591.598 188.611 592.168 187.972 592.617 187.424C593.072 186.869 593.411 186.343 593.636 185.845C593.86 185.346 593.972 184.817 593.972 184.256C593.972 183.62 593.823 183.072 593.523 182.611C593.224 182.144 592.816 181.786 592.299 181.537C591.782 181.281 591.2 181.153 590.552 181.153C589.867 181.153 589.269 181.294 588.758 181.574C588.247 181.854 587.854 182.25 587.58 182.761C587.306 183.272 587.169 183.87 587.169 184.555H584.412C584.412 183.39 584.68 182.371 585.216 181.499C585.752 180.627 586.487 179.951 587.421 179.471C588.356 178.985 589.418 178.743 590.608 178.743C591.81 178.743 592.869 178.982 593.785 179.462C594.707 179.936 595.427 180.583 595.944 181.406C596.461 182.222 596.719 183.144 596.719 184.172C596.719 184.882 596.585 185.577 596.318 186.256C596.056 186.935 595.598 187.692 594.944 188.526C594.29 189.355 593.38 190.361 592.215 191.545L588.412 195.526V195.666H597.028V198.142H584.431Z" fill="#4B2324"/>
<path d="M713.021 179.004V198.142H710.124V181.901H710.012L705.433 184.891V182.125L710.208 179.004H713.021ZM724.86 198.404C723.577 198.404 722.431 198.183 721.422 197.74C720.419 197.298 719.624 196.684 719.039 195.899C718.459 195.108 718.148 194.192 718.104 193.152H721.038C721.076 193.719 721.266 194.211 721.608 194.629C721.957 195.04 722.412 195.357 722.973 195.582C723.534 195.806 724.156 195.918 724.842 195.918C725.596 195.918 726.262 195.787 726.842 195.526C727.427 195.264 727.885 194.9 728.215 194.432C728.545 193.959 728.71 193.414 728.71 192.797C728.71 192.155 728.545 191.592 728.215 191.106C727.891 190.613 727.415 190.227 726.785 189.947C726.162 189.666 725.409 189.526 724.524 189.526H722.907V187.171H724.524C725.234 187.171 725.857 187.044 726.393 186.788C726.935 186.533 727.359 186.178 727.664 185.723C727.969 185.262 728.122 184.723 728.122 184.106C728.122 183.515 727.988 183.001 727.72 182.565C727.458 182.122 727.084 181.776 726.599 181.527C726.119 181.278 725.552 181.153 724.898 181.153C724.275 181.153 723.692 181.269 723.15 181.499C722.615 181.723 722.179 182.047 721.842 182.471C721.506 182.888 721.325 183.39 721.3 183.976H718.506C718.537 182.941 718.842 182.032 719.422 181.247C720.007 180.462 720.78 179.848 721.739 179.406C722.699 178.964 723.764 178.743 724.935 178.743C726.162 178.743 727.222 178.982 728.112 179.462C729.01 179.936 729.701 180.568 730.187 181.359C730.679 182.15 730.922 183.016 730.916 183.957C730.922 185.028 730.623 185.938 730.019 186.686C729.421 187.433 728.623 187.935 727.626 188.19V188.34C728.897 188.533 729.882 189.037 730.579 189.853C731.283 190.669 731.632 191.682 731.626 192.89C731.632 193.943 731.339 194.887 730.748 195.722C730.162 196.557 729.361 197.214 728.346 197.694C727.331 198.167 726.169 198.404 724.86 198.404Z" fill="#4B2324"/>
<path d="M845.691 179.004V198.142H842.794V181.901H842.682L838.103 184.891V182.125L842.878 179.004H845.691ZM850.466 194.404V192.068L858.736 179.004H860.577V182.443H859.409L853.493 191.806V191.956H864.829V194.404H850.466ZM859.539 198.142V193.694L859.558 192.629V179.004H862.296V198.142H859.539Z" fill="#4B2324"/>
<path d="M49.6701 311.674V330.812H46.7733V314.571H46.6611L42.0822 317.561V314.795L46.8574 311.674H49.6701ZM61.1641 331.074C59.9929 331.074 58.9401 330.85 58.0056 330.401C57.0774 329.946 56.336 329.323 55.7816 328.532C55.2271 327.741 54.9312 326.838 54.8938 325.822H57.6972C57.7658 326.645 58.1302 327.32 58.7906 327.85C59.4509 328.38 60.2421 328.644 61.1641 328.644C61.8992 328.644 62.5502 328.476 63.1172 328.14C63.6903 327.797 64.1389 327.327 64.4628 326.729C64.793 326.131 64.9581 325.448 64.9581 324.682C64.9581 323.903 64.7899 323.209 64.4535 322.598C64.117 321.988 63.6529 321.508 63.0611 321.159C62.4755 320.81 61.8027 320.633 61.0426 320.627C60.4633 320.627 59.8808 320.726 59.2952 320.926C58.7096 321.125 58.2361 321.387 57.8748 321.711L55.2302 321.318L56.3049 311.674H66.827V314.151H58.7065L58.099 319.505H58.2112C58.585 319.144 59.0802 318.842 59.697 318.599C60.32 318.356 60.9866 318.234 61.6968 318.234C62.8617 318.234 63.899 318.511 64.8086 319.066C65.7243 319.62 66.4439 320.377 66.9672 321.337C67.4967 322.29 67.7584 323.386 67.7521 324.626C67.7584 325.866 67.478 326.972 66.9111 327.943C66.3504 328.915 65.5717 329.682 64.5749 330.242C63.5844 330.797 62.4475 331.074 61.1641 331.074Z" fill="#4B2324"/>
<path d="M183.437 311.674V330.812H180.54V314.571H180.428L175.849 317.561V314.795L180.624 311.674H183.437ZM195.295 331.074C194.442 331.061 193.601 330.906 192.772 330.607C191.95 330.308 191.202 329.809 190.529 329.112C189.857 328.414 189.318 327.476 188.913 326.299C188.514 325.121 188.315 323.651 188.315 321.888C188.315 320.218 188.48 318.736 188.81 317.44C189.146 316.144 189.629 315.051 190.258 314.16C190.888 313.263 191.648 312.581 192.538 312.113C193.429 311.646 194.429 311.413 195.538 311.413C196.678 311.413 197.691 311.637 198.575 312.085C199.46 312.534 200.176 313.154 200.724 313.945C201.279 314.736 201.631 315.636 201.78 316.646H198.93C198.737 315.848 198.354 315.197 197.781 314.693C197.208 314.188 196.46 313.936 195.538 313.936C194.136 313.936 193.043 314.546 192.258 315.767C191.479 316.988 191.087 318.686 191.081 320.86H191.221C191.551 320.318 191.956 319.857 192.436 319.477C192.922 319.091 193.464 318.795 194.062 318.589C194.666 318.378 195.301 318.272 195.968 318.272C197.077 318.272 198.08 318.543 198.977 319.085C199.88 319.62 200.6 320.362 201.136 321.309C201.671 322.256 201.939 323.34 201.939 324.561C201.939 325.782 201.662 326.887 201.108 327.878C200.559 328.869 199.787 329.654 198.79 330.233C197.793 330.806 196.628 331.086 195.295 331.074ZM195.286 328.644C196.021 328.644 196.678 328.464 197.258 328.102C197.837 327.741 198.295 327.255 198.631 326.645C198.968 326.034 199.136 325.352 199.136 324.598C199.136 323.863 198.971 323.193 198.641 322.589C198.317 321.985 197.868 321.505 197.295 321.15C196.728 320.795 196.08 320.617 195.351 320.617C194.797 320.617 194.283 320.723 193.809 320.935C193.342 321.147 192.931 321.44 192.576 321.813C192.221 322.187 191.94 322.617 191.735 323.103C191.535 323.583 191.436 324.09 191.436 324.626C191.436 325.342 191.601 326.006 191.931 326.616C192.267 327.227 192.725 327.719 193.305 328.093C193.89 328.461 194.551 328.644 195.286 328.644Z" fill="#4B2324"/>
<path d="M316.107 311.674V330.812H313.21V314.571H313.098L308.519 317.561V314.795L313.294 311.674H316.107ZM321.928 330.812L330.283 314.291V314.151H320.62V311.674H333.273V314.235L324.947 330.812H321.928Z" fill="#4B2324"/>
<path d="M449.873 311.674V330.812H446.976V314.571H446.864L442.285 317.561V314.795L447.06 311.674H449.873ZM461.517 331.074C460.177 331.074 458.994 330.843 457.966 330.382C456.944 329.921 456.144 329.286 455.564 328.476C454.985 327.666 454.698 326.744 454.704 325.71C454.698 324.9 454.863 324.156 455.2 323.477C455.542 322.791 456.006 322.221 456.592 321.767C457.178 321.306 457.832 321.013 458.554 320.888V320.776C457.601 320.546 456.838 320.035 456.265 319.243C455.692 318.452 455.408 317.543 455.415 316.515C455.408 315.537 455.667 314.665 456.19 313.898C456.72 313.126 457.446 312.518 458.368 312.076C459.29 311.634 460.339 311.413 461.517 311.413C462.682 311.413 463.722 311.637 464.638 312.085C465.56 312.528 466.286 313.135 466.815 313.908C467.345 314.674 467.613 315.543 467.619 316.515C467.613 317.543 467.32 318.452 466.74 319.243C466.161 320.035 465.407 320.546 464.479 320.776V320.888C465.195 321.013 465.84 321.306 466.413 321.767C466.993 322.221 467.454 322.791 467.796 323.477C468.145 324.156 468.323 324.9 468.329 325.71C468.323 326.744 468.03 327.666 467.451 328.476C466.871 329.286 466.068 329.921 465.04 330.382C464.018 330.843 462.844 331.074 461.517 331.074ZM461.517 328.71C462.308 328.71 462.993 328.579 463.573 328.317C464.152 328.049 464.601 327.679 464.918 327.205C465.236 326.725 465.398 326.165 465.404 325.523C465.398 324.857 465.223 324.268 464.881 323.757C464.544 323.246 464.087 322.844 463.507 322.552C462.928 322.259 462.264 322.112 461.517 322.112C460.763 322.112 460.093 322.259 459.508 322.552C458.922 322.844 458.461 323.246 458.125 323.757C457.788 324.268 457.623 324.857 457.629 325.523C457.623 326.165 457.776 326.725 458.087 327.205C458.405 327.679 458.857 328.049 459.442 328.317C460.028 328.579 460.719 328.71 461.517 328.71ZM461.517 319.804C462.152 319.804 462.716 319.676 463.208 319.421C463.7 319.166 464.087 318.811 464.367 318.356C464.653 317.901 464.8 317.368 464.806 316.758C464.8 316.16 464.657 315.636 464.376 315.188C464.102 314.739 463.719 314.394 463.227 314.151C462.735 313.901 462.165 313.777 461.517 313.777C460.856 313.777 460.277 313.901 459.779 314.151C459.286 314.394 458.903 314.739 458.629 315.188C458.355 315.636 458.221 316.16 458.227 316.758C458.221 317.368 458.358 317.901 458.639 318.356C458.919 318.811 459.305 319.166 459.797 319.421C460.296 319.676 460.869 319.804 461.517 319.804Z" fill="#4B2324"/>
<path d="M585.832 311.674V330.812H582.935V314.571H582.823L578.244 317.561V314.795L583.019 311.674H585.832ZM597.373 311.413C598.226 311.419 599.067 311.575 599.896 311.88C600.725 312.185 601.472 312.684 602.139 313.375C602.812 314.067 603.347 315.001 603.746 316.178C604.151 317.35 604.357 318.807 604.363 320.552C604.363 322.228 604.195 323.72 603.858 325.028C603.522 326.33 603.039 327.429 602.41 328.327C601.787 329.224 601.03 329.906 600.139 330.373C599.248 330.84 598.245 331.074 597.13 331.074C595.99 331.074 594.978 330.85 594.093 330.401C593.208 329.953 592.489 329.333 591.934 328.541C591.38 327.744 591.034 326.828 590.897 325.794H593.747C593.934 326.616 594.314 327.283 594.887 327.794C595.467 328.299 596.214 328.551 597.13 328.551C598.532 328.551 599.625 327.94 600.41 326.719C601.195 325.492 601.591 323.779 601.597 321.58H601.447C601.123 322.115 600.718 322.576 600.232 322.963C599.753 323.349 599.214 323.648 598.616 323.86C598.018 324.072 597.379 324.178 596.7 324.178C595.597 324.178 594.594 323.907 593.691 323.365C592.788 322.823 592.068 322.078 591.532 321.131C590.997 320.184 590.729 319.103 590.729 317.889C590.729 316.68 591.003 315.583 591.551 314.599C592.106 313.615 592.878 312.836 593.869 312.263C594.865 311.684 596.034 311.4 597.373 311.413ZM597.382 313.842C596.653 313.842 595.996 314.023 595.411 314.384C594.831 314.739 594.373 315.222 594.037 315.833C593.7 316.437 593.532 317.11 593.532 317.851C593.532 318.592 593.694 319.265 594.018 319.87C594.348 320.468 594.797 320.944 595.364 321.299C595.937 321.648 596.591 321.823 597.326 321.823C597.874 321.823 598.385 321.717 598.859 321.505C599.332 321.293 599.747 321 600.102 320.627C600.457 320.246 600.734 319.817 600.933 319.337C601.133 318.857 601.232 318.353 601.232 317.823C601.232 317.119 601.064 316.465 600.728 315.861C600.398 315.256 599.943 314.77 599.363 314.403C598.784 314.029 598.124 313.842 597.382 313.842Z" fill="#4B2324"/>
<path d="M703.566 330.812V328.719L710.042 322.01C710.734 321.281 711.304 320.642 711.752 320.094C712.207 319.539 712.547 319.013 712.771 318.515C712.995 318.016 713.107 317.487 713.107 316.926C713.107 316.291 712.958 315.742 712.659 315.281C712.36 314.814 711.952 314.456 711.435 314.207C710.918 313.951 710.335 313.824 709.687 313.824C709.002 313.824 708.404 313.964 707.893 314.244C707.382 314.524 706.99 314.92 706.716 315.431C706.442 315.942 706.304 316.54 706.304 317.225H703.548C703.548 316.06 703.816 315.041 704.351 314.169C704.887 313.297 705.622 312.621 706.557 312.142C707.491 311.656 708.553 311.413 709.743 311.413C710.946 311.413 712.005 311.652 712.921 312.132C713.843 312.606 714.562 313.254 715.079 314.076C715.596 314.892 715.855 315.814 715.855 316.842C715.855 317.552 715.721 318.247 715.453 318.926C715.191 319.605 714.733 320.362 714.079 321.197C713.425 322.025 712.516 323.031 711.351 324.215L707.547 328.196V328.336H716.163V330.812H703.566ZM726.368 331.13C724.891 331.124 723.63 330.734 722.583 329.962C721.536 329.189 720.736 328.065 720.181 326.588C719.627 325.112 719.35 323.333 719.35 321.253C719.35 319.178 719.627 317.406 720.181 315.935C720.742 314.465 721.546 313.344 722.592 312.571C723.645 311.799 724.904 311.413 726.368 311.413C727.832 311.413 729.087 311.802 730.134 312.581C731.18 313.353 731.981 314.475 732.535 315.945C733.096 317.409 733.376 319.178 733.376 321.253C733.376 323.34 733.099 325.121 732.544 326.598C731.99 328.068 731.189 329.193 730.143 329.971C729.096 330.744 727.838 331.13 726.368 331.13ZM726.368 328.635C727.663 328.635 728.676 328.003 729.405 326.738C730.14 325.473 730.507 323.645 730.507 321.253C730.507 319.664 730.339 318.321 730.003 317.225C729.673 316.122 729.196 315.288 728.573 314.721C727.956 314.148 727.221 313.861 726.368 313.861C725.078 313.861 724.066 314.496 723.331 315.767C722.595 317.038 722.225 318.867 722.219 321.253C722.219 322.847 722.384 324.196 722.714 325.299C723.05 326.395 723.527 327.227 724.144 327.794C724.76 328.355 725.502 328.635 726.368 328.635Z" fill="#4B2324"/>
<path d="M838.43 330.812V328.719L844.906 322.01C845.597 321.281 846.167 320.642 846.616 320.094C847.071 319.539 847.41 319.013 847.634 318.515C847.859 318.016 847.971 317.487 847.971 316.926C847.971 316.291 847.821 315.742 847.522 315.281C847.223 314.814 846.815 314.456 846.298 314.207C845.781 313.951 845.198 313.824 844.551 313.824C843.865 313.824 843.267 313.964 842.756 314.244C842.246 314.524 841.853 314.92 841.579 315.431C841.305 315.942 841.168 316.54 841.168 317.225H838.411C838.411 316.06 838.679 315.041 839.215 314.169C839.75 313.297 840.486 312.621 841.42 312.142C842.355 311.656 843.417 311.413 844.607 311.413C845.809 311.413 846.868 311.652 847.784 312.132C848.706 312.606 849.425 313.254 849.942 314.076C850.46 314.892 850.718 315.814 850.718 316.842C850.718 317.552 850.584 318.247 850.316 318.926C850.055 319.605 849.597 320.362 848.943 321.197C848.288 322.025 847.379 323.031 846.214 324.215L842.411 328.196V328.336H851.026V330.812H838.43ZM861.829 311.674V330.812H858.932V314.571H858.82L854.241 317.561V314.795L859.016 311.674H861.829Z" fill="#4B2324"/>
<path d="M41.3126 463.482V461.389L47.7885 454.68C48.48 453.951 49.05 453.312 49.4986 452.764C49.9533 452.209 50.2929 451.683 50.5171 451.185C50.7414 450.686 50.8535 450.157 50.8535 449.596C50.8535 448.961 50.704 448.412 50.405 447.951C50.106 447.484 49.6979 447.126 49.1808 446.877C48.6638 446.621 48.0813 446.494 47.4334 446.494C46.7481 446.494 46.15 446.634 45.6392 446.914C45.1283 447.194 44.7359 447.59 44.4618 448.101C44.1876 448.612 44.0506 449.21 44.0506 449.895H41.2939C41.2939 448.73 41.5618 447.712 42.0975 446.839C42.6333 445.967 43.3684 445.291 44.3029 444.812C45.2374 444.326 46.2996 444.083 47.4894 444.083C48.6918 444.083 49.7509 444.323 50.6667 444.802C51.5887 445.276 52.3082 445.924 52.8253 446.746C53.3424 447.562 53.6009 448.484 53.6009 449.512C53.6009 450.222 53.467 450.917 53.1991 451.596C52.9374 452.275 52.4795 453.032 51.8254 453.867C51.1713 454.695 50.2617 455.701 49.0967 456.885L45.2934 460.866V461.006H53.9093V463.482H41.3126ZM57.4509 463.482V461.389L63.9268 454.68C64.6183 453.951 65.1883 453.312 65.6369 452.764C66.0917 452.209 66.4312 451.683 66.6555 451.185C66.8797 450.686 66.9919 450.157 66.9919 449.596C66.9919 448.961 66.8424 448.412 66.5433 447.951C66.2443 447.484 65.8362 447.126 65.3192 446.877C64.8021 446.621 64.2196 446.494 63.5717 446.494C62.8864 446.494 62.2884 446.634 61.7775 446.914C61.2667 447.194 60.8742 447.59 60.6001 448.101C60.326 448.612 60.1889 449.21 60.1889 449.895H57.4322C57.4322 448.73 57.7001 447.712 58.2359 446.839C58.7716 445.967 59.5068 445.291 60.4412 444.812C61.3757 444.326 62.4379 444.083 63.6278 444.083C64.8301 444.083 65.8892 444.323 66.805 444.802C67.727 445.276 68.4465 445.924 68.9636 446.746C69.4807 447.562 69.7392 448.484 69.7392 449.512C69.7392 450.222 69.6053 450.917 69.3374 451.596C69.0757 452.275 68.6179 453.032 67.9637 453.867C67.3096 454.695 66.4 455.701 65.2351 456.885L61.4318 460.866V461.006H70.0476V463.482H57.4509Z" fill="#4B2324"/>
<path d="M172.887 463.482V461.389L179.363 454.68C180.054 453.951 180.624 453.312 181.073 452.764C181.528 452.209 181.867 451.683 182.091 451.185C182.316 450.686 182.428 450.157 182.428 449.596C182.428 448.961 182.278 448.412 181.979 447.951C181.68 447.484 181.272 447.126 180.755 446.877C180.238 446.621 179.655 446.494 179.008 446.494C178.322 446.494 177.724 446.634 177.213 446.914C176.703 447.194 176.31 447.59 176.036 448.101C175.762 448.612 175.625 449.21 175.625 449.895H172.868C172.868 448.73 173.136 447.712 173.672 446.839C174.208 445.967 174.943 445.291 175.877 444.812C176.812 444.326 177.874 444.083 179.064 444.083C180.266 444.083 181.325 444.323 182.241 444.802C183.163 445.276 183.882 445.924 184.399 446.746C184.917 447.562 185.175 448.484 185.175 449.512C185.175 450.222 185.041 450.917 184.773 451.596C184.512 452.275 184.054 453.032 183.4 453.867C182.745 454.695 181.836 455.701 180.671 456.885L176.868 460.866V461.006H185.483V463.482H172.887ZM195.688 463.744C194.405 463.744 193.258 463.523 192.249 463.08C191.246 462.638 190.452 462.025 189.866 461.24C189.287 460.448 188.975 459.533 188.932 458.492H191.866C191.903 459.059 192.093 459.551 192.436 459.969C192.785 460.38 193.24 460.698 193.8 460.922C194.361 461.146 194.984 461.258 195.669 461.258C196.423 461.258 197.09 461.127 197.669 460.866C198.255 460.604 198.712 460.24 199.043 459.772C199.373 459.299 199.538 458.754 199.538 458.137C199.538 457.495 199.373 456.932 199.043 456.446C198.719 455.954 198.242 455.567 197.613 455.287C196.99 455.007 196.236 454.866 195.352 454.866H193.735V452.512H195.352C196.062 452.512 196.685 452.384 197.22 452.128C197.762 451.873 198.186 451.518 198.491 451.063C198.797 450.602 198.949 450.063 198.949 449.447C198.949 448.855 198.815 448.341 198.547 447.905C198.286 447.462 197.912 447.117 197.426 446.867C196.946 446.618 196.379 446.494 195.725 446.494C195.102 446.494 194.52 446.609 193.978 446.839C193.442 447.064 193.006 447.388 192.67 447.811C192.333 448.229 192.152 448.73 192.128 449.316H189.334C189.365 448.282 189.67 447.372 190.249 446.587C190.835 445.802 191.607 445.188 192.567 444.746C193.526 444.304 194.591 444.083 195.763 444.083C196.99 444.083 198.049 444.323 198.94 444.802C199.837 445.276 200.528 445.908 201.014 446.699C201.507 447.49 201.75 448.356 201.743 449.297C201.75 450.369 201.45 451.278 200.846 452.026C200.248 452.773 199.451 453.275 198.454 453.53V453.68C199.725 453.873 200.709 454.377 201.407 455.194C202.111 456.01 202.46 457.022 202.453 458.231C202.46 459.283 202.167 460.227 201.575 461.062C200.989 461.897 200.189 462.554 199.173 463.034C198.158 463.507 196.996 463.744 195.688 463.744Z" fill="#4B2324"/>
<path d="M305.557 463.482V461.389L312.033 454.68C312.724 453.951 313.294 453.312 313.743 452.764C314.197 452.209 314.537 451.683 314.761 451.185C314.986 450.686 315.098 450.157 315.098 449.596C315.098 448.961 314.948 448.412 314.649 447.951C314.35 447.484 313.942 447.126 313.425 446.877C312.908 446.621 312.325 446.494 311.678 446.494C310.992 446.494 310.394 446.634 309.883 446.914C309.372 447.194 308.98 447.59 308.706 448.101C308.432 448.612 308.295 449.21 308.295 449.895H305.538C305.538 448.73 305.806 447.712 306.342 446.839C306.877 445.967 307.613 445.291 308.547 444.812C309.482 444.326 310.544 444.083 311.734 444.083C312.936 444.083 313.995 444.323 314.911 444.802C315.833 445.276 316.552 445.924 317.069 446.746C317.586 447.562 317.845 448.484 317.845 449.512C317.845 450.222 317.711 450.917 317.443 451.596C317.182 452.275 316.724 453.032 316.07 453.867C315.415 454.695 314.506 455.701 313.341 456.885L309.538 460.866V461.006H318.153V463.482H305.557ZM320.882 459.744V457.408L329.152 444.344H330.993V447.783H329.825L323.91 457.147V457.296H335.245V459.744H320.882ZM329.956 463.482V459.034L329.974 457.969V444.344H332.712V463.482H329.956Z" fill="#4B2324"/>
<path d="M439.323 463.482V461.389L445.799 454.68C446.491 453.951 447.061 453.312 447.509 452.764C447.964 452.209 448.304 451.683 448.528 451.185C448.752 450.686 448.864 450.157 448.864 449.596C448.864 448.961 448.715 448.412 448.416 447.951C448.117 447.484 447.709 447.126 447.192 446.877C446.675 446.621 446.092 446.494 445.444 446.494C444.759 446.494 444.161 446.634 443.65 446.914C443.139 447.194 442.747 447.59 442.473 448.101C442.198 448.612 442.061 449.21 442.061 449.895H439.305C439.305 448.73 439.573 447.712 440.108 446.839C440.644 445.967 441.379 445.291 442.314 444.812C443.248 444.326 444.31 444.083 445.5 444.083C446.703 444.083 447.762 444.323 448.677 444.802C449.599 445.276 450.319 445.924 450.836 446.746C451.353 447.562 451.612 448.484 451.612 449.512C451.612 450.222 451.478 450.917 451.21 451.596C450.948 452.275 450.49 453.032 449.836 453.867C449.182 454.695 448.272 455.701 447.107 456.885L443.304 460.866V461.006H451.92V463.482H439.323ZM461.779 463.744C460.607 463.744 459.555 463.52 458.62 463.071C457.692 462.616 456.951 461.993 456.396 461.202C455.842 460.411 455.546 459.508 455.508 458.492H458.312C458.38 459.315 458.745 459.99 459.405 460.52C460.065 461.05 460.857 461.314 461.779 461.314C462.514 461.314 463.165 461.146 463.732 460.81C464.305 460.467 464.753 459.997 465.077 459.399C465.408 458.801 465.573 458.118 465.573 457.352C465.573 456.573 465.404 455.879 465.068 455.268C464.732 454.658 464.267 454.178 463.676 453.829C463.09 453.48 462.417 453.303 461.657 453.297C461.078 453.297 460.495 453.396 459.91 453.596C459.324 453.795 458.851 454.057 458.489 454.381L455.845 453.988L456.919 444.344H467.442V446.821H459.321L458.714 452.175H458.826C459.2 451.814 459.695 451.512 460.312 451.269C460.935 451.026 461.601 450.904 462.311 450.904C463.476 450.904 464.514 451.182 465.423 451.736C466.339 452.29 467.058 453.047 467.582 454.007C468.111 454.96 468.373 456.056 468.367 457.296C468.373 458.536 468.093 459.642 467.526 460.613C466.965 461.585 466.186 462.352 465.19 462.912C464.199 463.467 463.062 463.744 461.779 463.744Z" fill="#4B2324"/>
<path d="M569.8 463.482V461.389L576.276 454.68C576.967 453.951 577.537 453.312 577.986 452.764C578.441 452.209 578.78 451.683 579.004 451.185C579.229 450.686 579.341 450.157 579.341 449.596C579.341 448.961 579.191 448.412 578.892 447.951C578.593 447.484 578.185 447.126 577.668 446.877C577.151 446.621 576.569 446.494 575.921 446.494C575.235 446.494 574.637 446.634 574.126 446.914C573.616 447.194 573.223 447.59 572.949 448.101C572.675 448.612 572.538 449.21 572.538 449.895H569.781C569.781 448.73 570.049 447.712 570.585 446.839C571.121 445.967 571.856 445.291 572.79 444.812C573.725 444.326 574.787 444.083 575.977 444.083C577.179 444.083 578.238 444.323 579.154 444.802C580.076 445.276 580.796 445.924 581.313 446.746C581.83 447.562 582.088 448.484 582.088 449.512C582.088 450.222 581.954 450.917 581.686 451.596C581.425 452.275 580.967 453.032 580.313 453.867C579.659 454.695 578.749 455.701 577.584 456.885L573.781 460.866V461.006H582.397V463.482H569.8ZM592.62 463.744C591.766 463.731 590.925 463.576 590.097 463.277C589.274 462.978 588.527 462.479 587.854 461.782C587.181 461.084 586.642 460.146 586.237 458.969C585.839 457.791 585.639 456.321 585.639 454.558C585.639 452.889 585.804 451.406 586.134 450.11C586.471 448.814 586.954 447.721 587.583 446.83C588.212 445.933 588.972 445.251 589.863 444.784C590.754 444.316 591.754 444.083 592.863 444.083C594.003 444.083 595.015 444.307 595.9 444.755C596.784 445.204 597.501 445.824 598.049 446.615C598.603 447.406 598.955 448.306 599.105 449.316H596.255C596.062 448.518 595.679 447.867 595.105 447.363C594.532 446.858 593.785 446.606 592.863 446.606C591.461 446.606 590.368 447.216 589.583 448.437C588.804 449.658 588.411 451.356 588.405 453.53H588.545C588.876 452.988 589.281 452.527 589.76 452.147C590.246 451.761 590.788 451.465 591.386 451.259C591.99 451.048 592.626 450.942 593.293 450.942C594.401 450.942 595.404 451.213 596.302 451.755C597.205 452.29 597.924 453.032 598.46 453.979C598.996 454.926 599.264 456.01 599.264 457.231C599.264 458.452 598.987 459.558 598.432 460.548C597.884 461.539 597.111 462.324 596.115 462.903C595.118 463.476 593.953 463.756 592.62 463.744ZM592.61 461.314C593.345 461.314 594.003 461.134 594.582 460.772C595.161 460.411 595.619 459.925 595.956 459.315C596.292 458.704 596.46 458.022 596.46 457.268C596.46 456.533 596.295 455.863 595.965 455.259C595.641 454.655 595.193 454.175 594.619 453.82C594.053 453.465 593.405 453.287 592.676 453.287C592.121 453.287 591.607 453.393 591.134 453.605C590.667 453.817 590.255 454.11 589.9 454.483C589.545 454.857 589.265 455.287 589.059 455.773C588.86 456.253 588.76 456.76 588.76 457.296C588.76 458.013 588.925 458.676 589.256 459.287C589.592 459.897 590.05 460.389 590.629 460.763C591.215 461.131 591.875 461.314 592.61 461.314Z" fill="#4B2324"/>
<path d="M704.663 463.482V461.389L711.139 454.68C711.831 453.951 712.401 453.312 712.849 452.764C713.304 452.209 713.643 451.683 713.868 451.185C714.092 450.686 714.204 450.157 714.204 449.596C714.204 448.961 714.055 448.412 713.756 447.951C713.457 447.484 713.049 447.126 712.531 446.877C712.014 446.621 711.432 446.494 710.784 446.494C710.099 446.494 709.501 446.634 708.99 446.914C708.479 447.194 708.086 447.59 707.812 448.101C707.538 448.612 707.401 449.21 707.401 449.895H704.644C704.644 448.73 704.912 447.712 705.448 446.839C705.984 445.967 706.719 445.291 707.653 444.812C708.588 444.326 709.65 444.083 710.84 444.083C712.042 444.083 713.101 444.323 714.017 444.802C714.939 445.276 715.659 445.924 716.176 446.746C716.693 447.562 716.951 448.484 716.951 449.512C716.951 450.222 716.818 450.917 716.55 451.596C716.288 452.275 715.83 453.032 715.176 453.867C714.522 454.695 713.612 455.701 712.447 456.885L708.644 460.866V461.006H717.26V463.482H704.663ZM721.446 463.482L729.8 446.961V446.821H720.138V444.344H732.791V446.905L724.465 463.482H721.446Z" fill="#4B2324"/>
<path d="M838.43 463.482V461.389L844.906 454.68C845.597 453.951 846.167 453.312 846.616 452.764C847.071 452.209 847.41 451.683 847.634 451.185C847.859 450.686 847.971 450.157 847.971 449.596C847.971 448.961 847.821 448.412 847.522 447.951C847.223 447.484 846.815 447.126 846.298 446.877C845.781 446.621 845.198 446.494 844.551 446.494C843.865 446.494 843.267 446.634 842.756 446.914C842.246 447.194 841.853 447.59 841.579 448.101C841.305 448.612 841.168 449.21 841.168 449.895H838.411C838.411 448.73 838.679 447.712 839.215 446.839C839.75 445.967 840.486 445.291 841.42 444.812C842.355 444.326 843.417 444.083 844.607 444.083C845.809 444.083 846.868 444.323 847.784 444.802C848.706 445.276 849.425 445.924 849.942 446.746C850.46 447.562 850.718 448.484 850.718 449.512C850.718 450.222 850.584 450.917 850.316 451.596C850.055 452.275 849.597 453.032 848.943 453.867C848.288 454.695 847.379 455.701 846.214 456.885L842.411 460.866V461.006H851.026V463.482H838.43ZM861.035 463.744C859.695 463.744 858.512 463.513 857.484 463.052C856.462 462.591 855.661 461.956 855.082 461.146C854.503 460.336 854.216 459.414 854.222 458.38C854.216 457.57 854.381 456.826 854.718 456.147C855.06 455.461 855.524 454.891 856.11 454.437C856.696 453.976 857.35 453.683 858.072 453.558V453.446C857.119 453.216 856.356 452.705 855.783 451.914C855.21 451.122 854.926 450.213 854.933 449.185C854.926 448.207 855.185 447.335 855.708 446.568C856.238 445.796 856.963 445.188 857.885 444.746C858.807 444.304 859.857 444.083 861.035 444.083C862.2 444.083 863.24 444.307 864.156 444.755C865.078 445.198 865.804 445.805 866.333 446.578C866.863 447.344 867.131 448.213 867.137 449.185C867.131 450.213 866.838 451.122 866.258 451.914C865.679 452.705 864.925 453.216 863.997 453.446V453.558C864.713 453.683 865.358 453.976 865.931 454.437C866.511 454.891 866.972 455.461 867.314 456.147C867.663 456.826 867.841 457.57 867.847 458.38C867.841 459.414 867.548 460.336 866.969 461.146C866.389 461.956 865.586 462.591 864.558 463.052C863.536 463.513 862.362 463.744 861.035 463.744ZM861.035 461.38C861.826 461.38 862.511 461.249 863.09 460.987C863.67 460.719 864.118 460.349 864.436 459.875C864.754 459.396 864.916 458.835 864.922 458.193C864.916 457.527 864.741 456.938 864.399 456.427C864.062 455.916 863.604 455.514 863.025 455.222C862.446 454.929 861.782 454.782 861.035 454.782C860.281 454.782 859.611 454.929 859.026 455.222C858.44 455.514 857.979 455.916 857.643 456.427C857.306 456.938 857.141 457.527 857.147 458.193C857.141 458.835 857.294 459.396 857.605 459.875C857.923 460.349 858.375 460.719 858.96 460.987C859.546 461.249 860.237 461.38 861.035 461.38ZM861.035 452.474C861.67 452.474 862.234 452.347 862.726 452.091C863.218 451.836 863.604 451.481 863.885 451.026C864.171 450.571 864.318 450.038 864.324 449.428C864.318 448.83 864.174 448.306 863.894 447.858C863.62 447.409 863.237 447.064 862.745 446.821C862.253 446.571 861.683 446.447 861.035 446.447C860.374 446.447 859.795 446.571 859.297 446.821C858.804 447.064 858.421 447.409 858.147 447.858C857.873 448.306 857.739 448.83 857.745 449.428C857.739 450.038 857.876 450.571 858.156 451.026C858.437 451.481 858.823 451.836 859.315 452.091C859.814 452.347 860.387 452.474 861.035 452.474Z" fill="#4B2324"/>
<path d="M41.3126 589.574V587.48L47.7885 580.771C48.48 580.042 49.05 579.404 49.4986 578.855C49.9533 578.301 50.2929 577.774 50.5171 577.276C50.7414 576.778 50.8535 576.248 50.8535 575.687C50.8535 575.052 50.704 574.504 50.405 574.043C50.106 573.576 49.6979 573.217 49.1808 572.968C48.6638 572.713 48.0813 572.585 47.4334 572.585C46.7481 572.585 46.15 572.725 45.6392 573.005C45.1283 573.286 44.7359 573.681 44.4618 574.192C44.1876 574.703 44.0506 575.301 44.0506 575.986H41.2939C41.2939 574.821 41.5618 573.803 42.0975 572.931C42.6333 572.059 43.3684 571.383 44.3029 570.903C45.2374 570.417 46.2996 570.174 47.4894 570.174C48.6918 570.174 49.7509 570.414 50.6667 570.894C51.5887 571.367 52.3082 572.015 52.8253 572.837C53.3424 573.653 53.6009 574.575 53.6009 575.603C53.6009 576.314 53.467 577.008 53.1991 577.687C52.9374 578.366 52.4795 579.123 51.8254 579.958C51.1713 580.787 50.2617 581.793 49.0967 582.976L45.2934 586.957V587.097H53.9093V589.574H41.3126ZM63.8147 570.174C64.6681 570.18 65.5092 570.336 66.3377 570.641C67.1663 570.947 67.9139 571.445 68.5805 572.136C69.2533 572.828 69.7891 573.762 70.1878 574.94C70.5927 576.111 70.7983 577.569 70.8045 579.313C70.8045 580.989 70.6363 582.481 70.2999 583.789C69.9635 585.091 69.4807 586.191 68.8515 587.088C68.2285 587.985 67.4716 588.667 66.5807 589.134C65.6898 589.602 64.6868 589.835 63.5717 589.835C62.4316 589.835 61.4193 589.611 60.5347 589.163C59.65 588.714 58.9305 588.094 58.376 587.303C57.8216 586.505 57.4758 585.59 57.3388 584.556H60.1889C60.3758 585.378 60.7558 586.044 61.329 586.555C61.9083 587.06 62.6559 587.312 63.5717 587.312C64.9734 587.312 66.0667 586.702 66.8517 585.481C67.6367 584.253 68.0322 582.54 68.0385 580.341H67.889C67.565 580.877 67.1601 581.338 66.6741 581.724C66.1945 582.11 65.6556 582.409 65.0575 582.621C64.4595 582.833 63.8209 582.939 63.1418 582.939C62.0392 582.939 61.0362 582.668 60.1328 582.126C59.2295 581.584 58.51 580.839 57.9742 579.893C57.4385 578.946 57.1706 577.865 57.1706 576.65C57.1706 575.441 57.4447 574.345 57.9929 573.361C58.5474 572.376 59.3199 571.598 60.3104 571.024C61.3072 570.445 62.4753 570.162 63.8147 570.174ZM63.824 572.604C63.0951 572.604 62.4379 572.784 61.8523 573.146C61.2729 573.501 60.815 573.984 60.4786 574.594C60.1422 575.198 59.974 575.871 59.974 576.613C59.974 577.354 60.136 578.027 60.4599 578.631C60.7901 579.229 61.2386 579.706 61.8056 580.061C62.3787 580.41 63.0328 580.584 63.7679 580.584C64.3162 580.584 64.827 580.478 65.3005 580.266C65.7739 580.055 66.1882 579.762 66.5433 579.388C66.8984 579.008 67.1756 578.578 67.375 578.098C67.5744 577.619 67.674 577.114 67.674 576.585C67.674 575.881 67.5058 575.226 67.1694 574.622C66.8392 574.018 66.3845 573.532 65.8051 573.164C65.2257 572.791 64.5654 572.604 63.824 572.604Z" fill="#4B2324"/>
<path d="M179.55 589.835C178.266 589.835 177.12 589.614 176.111 589.172C175.108 588.73 174.313 588.116 173.728 587.331C173.148 586.54 172.837 585.624 172.793 584.584H175.728C175.765 585.151 175.955 585.643 176.298 586.06C176.646 586.471 177.101 586.789 177.662 587.013C178.223 587.237 178.846 587.35 179.531 587.35C180.285 587.35 180.951 587.219 181.531 586.957C182.116 586.695 182.574 586.331 182.904 585.864C183.235 585.39 183.4 584.845 183.4 584.228C183.4 583.587 183.235 583.023 182.904 582.537C182.58 582.045 182.104 581.659 181.475 581.378C180.852 581.098 180.098 580.958 179.213 580.958H177.597V578.603H179.213C179.923 578.603 180.546 578.475 181.082 578.22C181.624 577.964 182.048 577.609 182.353 577.155C182.658 576.694 182.811 576.155 182.811 575.538C182.811 574.946 182.677 574.432 182.409 573.996C182.147 573.554 181.774 573.208 181.288 572.959C180.808 572.71 180.241 572.585 179.587 572.585C178.964 572.585 178.382 572.7 177.84 572.931C177.304 573.155 176.868 573.479 176.531 573.903C176.195 574.32 176.014 574.821 175.989 575.407H173.195C173.226 574.373 173.532 573.463 174.111 572.678C174.697 571.893 175.469 571.28 176.428 570.838C177.388 570.395 178.453 570.174 179.624 570.174C180.852 570.174 181.911 570.414 182.802 570.894C183.699 571.367 184.39 571.999 184.876 572.791C185.368 573.582 185.611 574.448 185.605 575.388C185.611 576.46 185.312 577.369 184.708 578.117C184.11 578.865 183.312 579.366 182.316 579.622V579.771C183.587 579.964 184.571 580.469 185.269 581.285C185.973 582.101 186.321 583.113 186.315 584.322C186.321 585.375 186.029 586.319 185.437 587.153C184.851 587.988 184.051 588.645 183.035 589.125C182.02 589.599 180.858 589.835 179.55 589.835ZM196.51 589.891C195.034 589.885 193.772 589.496 192.726 588.723C191.679 587.951 190.879 586.826 190.324 585.35C189.77 583.873 189.492 582.095 189.492 580.014C189.492 577.939 189.77 576.167 190.324 574.697C190.885 573.227 191.688 572.105 192.735 571.333C193.788 570.56 195.046 570.174 196.51 570.174C197.974 570.174 199.23 570.563 200.276 571.342C201.323 572.115 202.123 573.236 202.678 574.706C203.238 576.17 203.519 577.939 203.519 580.014C203.519 582.101 203.242 583.883 202.687 585.359C202.133 586.829 201.332 587.954 200.286 588.733C199.239 589.505 197.98 589.891 196.51 589.891ZM196.51 587.396C197.806 587.396 198.818 586.764 199.547 585.499C200.282 584.235 200.65 582.406 200.65 580.014C200.65 578.425 200.482 577.083 200.145 575.986C199.815 574.884 199.339 574.049 198.716 573.482C198.099 572.909 197.364 572.622 196.51 572.622C195.221 572.622 194.208 573.258 193.473 574.529C192.738 575.8 192.367 577.628 192.361 580.014C192.361 581.609 192.526 582.958 192.856 584.06C193.193 585.157 193.669 585.988 194.286 586.555C194.903 587.116 195.644 587.396 196.51 587.396Z" fill="#4B2324"/>
<line x1="359.313" y1="540.227" x2="281.466" y2="618.075" stroke="#4B2324" stroke-width="2.19289"/>
<line x1="494.177" y1="542.42" x2="416.329" y2="620.268" stroke="#4B2324" stroke-width="2.19289"/>
<line x1="626.847" y1="542.42" x2="548.999" y2="620.268" stroke="#4B2324" stroke-width="2.19289"/>
<line x1="759.517" y1="542.42" x2="681.669" y2="620.268" stroke="#4B2324" stroke-width="2.19289"/>
<line x1="892.186" y1="542.42" x2="814.339" y2="620.268" stroke="#4B2324" stroke-width="2.19289"/>
<rect x="134.863" y="2.19289" width="239.025" height="106.355" rx="52.6294" stroke="#4B2324" stroke-width="4.38579"/>
<rect x="266.437" y="267.533" width="372.792" height="106.355" rx="52.6294" stroke="#4B2324" stroke-width="4.38579"/>
</svg>
