<svg width="31" height="45" viewBox="0 0 31 45" fill="none" xmlns="http://www.w3.org/2000/svg">
<path d="M0.967838 41.3852L24.488 24.0798C25.0039 23.7022 25.2932 23.1925 25.2932 22.6614C25.2932 22.1302 25.0039 21.6205 24.488 21.243L0.972941 3.93756C0.457365 3.55763 0.168469 3.04627 0.168469 2.5136C0.168469 1.98093 0.457365 1.46957 0.972941 1.08964C1.22481 0.902558 1.52584 0.753874 1.8583 0.652355C2.19076 0.550836 2.54792 0.498535 2.90873 0.498535C3.26954 0.498535 3.62669 0.550836 3.95915 0.652355C4.29161 0.753874 4.59264 0.902558 4.84451 1.08964L28.3596 18.3914C29.9048 19.531 30.7705 21.0643 30.7705 22.6614C30.7705 24.2585 29.9048 25.7918 28.3596 26.9314L4.84451 44.2331C4.59257 44.4208 4.29122 44.5699 3.95829 44.6718C3.62536 44.7736 3.2676 44.8261 2.90617 44.8261C2.54475 44.8261 2.187 44.7736 1.85407 44.6718C1.52114 44.5699 1.21978 44.4208 0.967838 44.2331C0.452262 43.8532 0.163366 43.3418 0.163366 42.8092C0.163366 42.2765 0.452262 41.7651 0.967838 41.3852Z" fill="#4B2324"/>
</svg>
