<svg width="34" height="24" viewBox="0 0 34 24" fill="none" xmlns="http://www.w3.org/2000/svg">
<path fill-rule="evenodd" clip-rule="evenodd" d="M17.9771 0.629623C17.7837 0.504022 17.5566 0.437012 17.3242 0.437012C17.0919 0.437012 16.8647 0.504022 16.6713 0.629623L9.89686 5.03654H0.824219V7.3366H3.33693L5.55029 22.448C5.59004 22.7223 5.72997 22.9735 5.94435 23.1552C6.15872 23.3369 6.43312 23.437 6.71708 23.437H27.9314C28.2153 23.437 28.4897 23.3369 28.7041 23.1552C28.9185 22.9735 29.0584 22.7223 29.0981 22.448L31.3115 7.3366H33.8242V5.03654H24.7516L17.9771 0.629623ZM17.3242 2.96878L20.504 5.03654H14.1421L17.3242 2.96878ZM11.4314 17.6869V10.7867H13.7885V17.6869H11.4314ZM16.1456 17.6869V10.7867H18.5028V17.6869H16.1456ZM20.8599 10.7867V17.6869H23.2171V10.7867H20.8599Z" fill="#EBC6CE"/>
</svg>
